# xmcd CD Database Entry
#
# Track frame offsets:
# 150
# 19397
# 37216
# 57796
# 78048
# 95643
# 112145
# 133112
# 155200
# 172832
# 190664
# 204281
#
# Disc length: 3126 seconds
#
# Revision: 3
# Processed by: cddbd v1.4PL0 Copyright (c) Steve Scherf et al.
# Submitted via: tcd 2.0b
#
DISCID=a10c340c
DTITLE=Dido - No Angel
DYEAR=1900
DGENRE=Other
TTITLE0=Here With Me
TTITLE1=Hunter
TTITLE2=Don't Think Of Me
TTITLE3=My Lover's Gone
TTITLE4=All You Want
TTITLE5=Thank You
TTITLE6=Honestly OK
TTITLE7=Slide
TTITLE8=Isobel
TTITLE9=I'm No Angel
TTITLE10=My Life
TTITLE11=Take My Hand
EXTD=ID3G:  12
EXTT0=
EXTT1=
EXTT2=
EXTT3=
EXTT4=
EXTT5=
EXTT6=
EXTT7=
EXTT8=
EXTT9=
EXTT10=
EXTT11=
PLAYORDER=
